<svg width="32" height="32" viewBox="0 0 32 32" fill="none" xmlns="http://www.w3.org/2000/svg">
  <circle cx="16" cy="16" r="15" fill="white" fill-opacity="0.15"/>
  <path d="M24 9H8C6.9 9 6.01 9.9 6.01 11L6 21C6 22.1 6.9 23 8 23H24C25.1 23 26 22.1 26 21V11C26 9.9 25.1 9 24 9ZM23.6 12.25L16.53 16.67C16.21 16.87 15.79 16.87 15.47 16.67L8.4 12.25C8.15 12.09 8 11.82 8 11.53C8 10.86 8.73 10.46 9.3 10.81L16 15L22.7 10.81C23.27 10.46 24 10.86 24 11.53C24 11.82 23.85 12.09 23.6 12.25Z" fill="white"/>
</svg>
