<svg width="32" height="32" viewBox="0 0 32 32" fill="none" xmlns="http://www.w3.org/2000/svg">
  <circle cx="16" cy="16" r="15" fill="white" fill-opacity="0.15"/>
  <path d="M22.2283 6H9.76538C7.79508 6 6.19922 7.59587 6.19922 9.56616V22.029C6.19922 24.0046 7.79508 25.5952 9.76538 25.5952H22.2283C24.1986 25.5952 25.7944 24.0046 25.7944 22.029V9.56616C25.7944 7.59587 24.1986 6 22.2283 6ZM12.3308 22.029H9.76538V12.7423H12.3308V22.029ZM11.0481 11.6836C10.1629 11.6836 9.44873 10.9695 9.44873 10.0843C9.44873 9.19913 10.1629 8.48496 11.0481 8.48496C11.9334 8.48496 12.6475 9.19913 12.6475 10.0843C12.6475 10.9695 11.9334 11.6836 11.0481 11.6836ZM23.2278 22.029H20.6623V17.5238C20.6623 16.4825 20.6424 15.1485 19.2202 15.1485C17.7779 15.1485 17.5446 16.2784 17.5446 17.4517V22.029H14.979V12.7423H17.4446V13.9714H17.4777C17.8188 13.3199 18.6717 12.6308 19.9544 12.6308C22.5595 12.6308 23.2278 14.3599 23.2278 16.6021V22.029Z" fill="white"/>
</svg>
